<svg width="64" height="64" viewBox="0 0 64 64" fill="none" xmlns="http://www.w3.org/2000/svg">
<path opacity="0.25" fill-rule="evenodd" clip-rule="evenodd" d="M10 0C4.47715 0 0 4.47715 0 10V54C0 59.5228 4.47715 64 10 64H54C59.5228 64 64 59.5228 64 54V10C64 4.47715 59.5228 0 54 0H10ZM32 55C44.7025 55 55 44.7025 55 32C55 19.2975 44.7025 9 32 9C19.2975 9 9 19.2975 9 32C9 44.7025 19.2975 55 32 55Z" fill="#B47AEA"/>
<circle cx="32" cy="32" r="21" stroke="#B47AEA" stroke-width="4"/>
<rect x="2" y="2" width="60" height="60" rx="8" stroke="#B47AEA" stroke-width="4"/>
<path d="M32 22L32 42L40 34M24 34L26 36" stroke="#B47AEA" stroke-width="4" stroke-linecap="round" stroke-linejoin="round" class="down-arrow" />
<path d="M32 42L32 22L24 30M40 30L38 28" stroke="#B47AEA" stroke-width="4" stroke-linecap="round" stroke-linejoin="round" class="up-arrow" />

<style>

.up-arrow {
  animation: 4s up-anim cubic-bezier(0.33, 1, 0.68, 1) infinite;
}

.down-arrow {
  animation: 4s down-anim cubic-bezier(0.33, 1, 0.68, 1) infinite;
}

@keyframes up-anim {
  0% {
    opacity: 0;
    transform: translateY(2px);
  }
  40% {
    opacity: 0;
    transform: translateY(2px);
  }
  50% {
    opacity: 1;
  }
  60% {
    opacity: 0;
    transform: translateY(-2px);
  }
  100% {
    opacity: 0;
    transform: translateY(-2px);
  }
}

@keyframes down-anim {
  0% {
    opacity: 1;
    transform: translateY(0px);
  }
  30% {
    opacity: 1;
    transform: translateY(0px);
  }
  40% {
    opacity: 0;
    transform: translateY(2px);
  }
  60% {
    opacity: 0;
    transform: translateY(-2px);
  }
  80% {
    opacity: 1;
    transform: translateY(0px);
  }
  100% {
    opacity: 1;
    transform: translateY(0px);
  }
}

</style>

</svg>
