<svg width="64" height="64" viewBox="0 0 64 64" fill="none" xmlns="http://www.w3.org/2000/svg">
<path opacity="0.25" fill-rule="evenodd" clip-rule="evenodd" d="M10.0002 0.000366211C4.4774 0.000366211 0.000244141 4.47752 0.000244141 10.0004V54.0004C0.000244141 59.5232 4.4774 64.0004 10.0002 64.0004H54.0002C59.5231 64.0004 64.0002 59.5232 64.0002 54.0004V10.0004C64.0002 4.47752 59.5231 0.000366211 54.0002 0.000366211H10.0002ZM32.0002 55.0004C44.7028 55.0004 55.0002 44.7029 55.0002 32.0004C55.0002 19.2978 44.7028 9.00037 32.0002 9.00037C19.2977 9.00037 9.00024 19.2978 9.00024 32.0004C9.00024 44.7029 19.2977 55.0004 32.0002 55.0004Z" fill="#2CCBFE"/>
<circle cx="32.0002" cy="32.0004" r="21" stroke="#2CCBFE" stroke-width="4"/>
<rect x="2.00024" y="2.00037" width="60" height="60" rx="8" stroke="#2CCBFE" stroke-width="4"/>
<mask id="mask0" mask-type="alpha" maskUnits="userSpaceOnUse" x="2" y="2" width="60" height="60">
<circle cx="32" cy="32" r="21" fill="#C4C4C4"/>
</mask>
<g mask="url(#mask0)">
<path d="M76.5478 -12.5477C74.5952 -14.5003 71.3502 -14.4211 69.2999 -12.3709C67.2497 -10.3206 67.1705 -7.07566 69.1232 -5.12303C71.0758 -3.17041 70.9966 0.0745554 68.9464 2.12481C66.8961 4.17506 63.6512 4.25421 61.6985 2.30159C59.7459 0.348966 56.501 0.428112 54.4507 2.47836C52.4004 4.52862 52.3213 7.77359 54.2739 9.72621C56.2265 11.6788 56.1474 14.9238 54.0971 16.9741C52.0469 19.0243 48.8019 19.1034 46.8493 17.1508C44.8967 15.1982 41.6517 15.2774 39.6015 17.3276C37.5512 19.3779 37.4721 22.6228 39.4247 24.5755C41.3773 26.5281 41.2982 29.773 39.2479 31.8233C37.1976 33.8736 33.9527 33.9527 32.0001 32.0001C30.0474 30.0474 26.8025 30.1266 24.7522 32.1769C22.702 34.2271 22.6228 37.4721 24.5754 39.4247C26.5281 41.3773 26.4489 44.6223 24.3987 46.6725C22.3484 48.7228 19.1034 48.8019 17.1508 46.8493C15.1982 44.8967 11.9531 44.9758 9.90286 47.026C7.85261 49.0763 7.77346 52.3213 9.72608 54.2739C11.6787 56.2265 11.5996 59.4715 9.54931 61.5217C7.49906 63.572 4.25409 63.6511 2.30146 61.6985C0.348843 59.7459 -2.89613 59.825 -4.94638 61.8753C-6.99663 63.9255 -7.07578 67.1705 -5.12316 69.1231C-3.17053 71.0757 -3.24968 74.3207 -5.29993 76.371C-7.35018 78.4212 -10.5952 78.5004 -12.5478 76.5477" class="wave" stroke="#2CCBFE" stroke-width="4"/>
</g>

<style>

  .wave {
    animation: 6s wave cubic-bezier(0.83, 0, 0.17, 1) infinite;
  }

  @keyframes wave {
    0%, 20% {
      opacity: 1;
      transform: translateY(-46.5%) translateX(46.5%);
    }
    50% {
      opacity: .5;
    }
    80%, 100% {
      opacity: 1;
      transform: translateY(46.4%) translateX(-46.4%);
    }
  }
  
</style>

</svg>
